<svg xmlns="http://www.w3.org/2000/svg" viewBox="0 0 1535.4 1996.8"><style>.st0{fill:#24272a}.st1{fill:#f93549}</style><path class="st0" d="M1351.4 1703.8h182.3V.1h-257.3l-74.5 902.6L1136 .1H862.6v1703.7h182.3V933.5l89.2 770.3h128.1l89.2-770.3z"/><path class="st1" d="M0 1703.2h348.5v-182.3H182.4V903h122.7V720.7H182.4V182.4h166.1V.1H0z"/><path class="st0" d="M437.3 1703.2h180.1L814.7 0H624.1zM0 1980.7h39.7v-15.3H18.2v-12.1h20.3v-15.4H18.2v-11.6h21.5v-15.4H0zM121.2 1938.1c-1.5-.5-3-1-4.5-1.4-1.5-.4-2.9-.9-4.1-1.5-1.2-.6-2.2-1.3-2.9-2.1-.7-.8-1.1-1.8-1.1-3.1 0-1.8.7-3.2 2.2-4.4 1.5-1.1 3.4-1.7 5.7-1.7 1.9 0 3.8.4 5.7 1.2 2 .8 4 2 5.9 3.6l7.2-14.2c-3.5-1.9-7.1-3.3-10.8-4.2-3.8-1-7.4-1.4-10.8-1.4-3.7 0-7.1.6-10.1 1.7s-5.5 2.7-7.6 4.7c-2.1 2-3.7 4.4-4.8 7.2-1.1 2.8-1.7 5.9-1.7 9.4s.5 6.3 1.6 8.6 2.5 4.1 4.3 5.6c1.8 1.5 3.8 2.7 6 3.6 2.3.9 4.6 1.7 6.9 2.5 2 .7 3.7 1.3 5 1.9 1.4.6 2.5 1.2 3.4 1.8.9.6 1.5 1.4 1.9 2.1.4.8.6 1.7.6 2.7 0 1.7-.7 3.3-2.2 4.6-1.5 1.4-3.7 2-6.6 2-2.6 0-5.2-.6-7.9-1.8-2.7-1.2-5.3-3-8.1-5.4l-7.8 14.6c7.5 5.3 15.7 7.9 24.6 7.9 4.3 0 8.1-.6 11.4-1.7 3.4-1.1 6.2-2.7 8.5-4.8 2.3-2.1 4.1-4.6 5.3-7.5 1.2-2.9 1.8-6.1 1.8-9.7 0-5.3-1.4-9.6-4.1-12.9-2.6-3.3-7-5.9-12.9-7.9zM215.7 1910.9h-28.9v69.9H205v-23.2h10.7c7.8 0 13.9-2 18-6.1 4.2-4.1 6.3-9.8 6.3-17.2 0-7.4-2.1-13.2-6.3-17.2-4.2-4.2-10.2-6.2-18-6.2zm-4.7 32h-6v-17.4h6c6.7 0 10 2.9 10 8.7 0 5.8-3.4 8.7-10 8.7zM302.7 1910.9l-26.6 69.9h19.4l4.2-12.1h25.9l4.2 12.1h19.4l-26.6-69.9h-19.9zm1.7 43.9l8.2-23.3 8.2 23.3h-16.4zM425.2 1908.9c-4.9 0-9.5.9-14 2.7-4.4 1.8-8.4 4.4-11.7 7.6-3.4 3.2-6.1 7.1-8.1 11.6s-3 9.4-3 14.8 1 10.3 3.1 14.9c2 4.5 4.7 8.5 8.1 11.8 3.4 3.3 7.3 5.9 11.7 7.7 4.4 1.8 9 2.7 13.9 2.7 2.3 0 4.7-.2 7.1-.7 2.4-.5 5-1.2 7.8-2.2l1.9-.6v-21.5c-4.6 4.9-9.9 7.4-15.7 7.4-2.7 0-5.1-.5-7.4-1.5-2.3-1-4.3-2.3-6-4.1-1.7-1.7-3-3.8-4-6.1s-1.4-4.9-1.4-7.7c0-2.7.5-5.2 1.4-7.6 1-2.3 2.3-4.4 3.9-6.1 1.7-1.7 3.7-3 6-4s4.8-1.5 7.6-1.5c6.2 0 11.4 2.6 15.6 7.7v-21.7c-3-1.2-5.8-2.1-8.5-2.7-2.8-.6-5.6-.9-8.3-.9zM490.4 1980.7h39.7v-15.3h-21.5v-12.1h20.3v-15.4h-20.3v-11.6h21.5v-15.4h-39.7zM649.8 1996.8h22.7v-9.9h-9.4v-73.2h9.4v-9.9h-22.7zM721.2 1910.9h18.2v69.9h-18.2zM845.6 1910.9l-13.9 37.2-14-37.2h-17.9l-11.9 69.8H806l6-40.2 15.6 40.2h7.3l16.5-40.2 6 40.2h18l-11.8-69.8zM920.8 1913.8h9.5v73.2h-9.5v9.8h22.8v-93h-22.8zM1121.1 1910.9l-13.9 37.2-14-37.2h-18l-11.9 69.8h18.1l6-40.2 15.7 40.2h7.2l16.5-40.2 6 40.2h18.1l-11.9-69.8zM1199.4 1980.7h39.8v-15.3h-21.6v-12.1h20.4v-15.4h-20.4v-11.6h21.6v-15.4h-39.8zM1340.5 1921.4c-3.1-3.2-6.8-5.7-10.9-7.6-4.2-1.9-8.6-2.9-13.4-2.9h-26.9v69.9h26.9c4.8 0 9.3-1 13.5-2.9 4.2-1.9 7.8-4.5 10.9-7.7 3.1-3.2 5.6-6.9 7.3-11.2 1.8-4.2 2.6-8.6 2.6-13.2s-.9-9.1-2.7-13.3c-1.7-4.2-4.2-7.9-7.3-11.1zm-10.3 32.2c-.9 2.4-2.2 4.4-3.9 6.2-1.7 1.7-3.8 3.1-6.3 4.1-2.5 1-5.3 1.5-8.4 1.5h-4.2v-39.1h4.2c3.1 0 5.9.5 8.3 1.5 2.5 1 4.6 2.3 6.3 4.1 1.7 1.7 3 3.8 3.9 6.2.9 2.4 1.4 5 1.4 7.8.1 2.8-.4 5.4-1.3 7.7zM1399.2 1910.9h18.2v69.9h-18.2zM1508.8 1910.9H1489l-26.6 69.9h19.4l4.2-12.1h25.9l4.2 12.1h19.4l-26.7-69.9zm-18.1 43.9l8.2-23.3 8.2 23.3h-16.4z"/></svg>